<svg t="1741289315896" class="icon" viewBox="0 0 1024 1024" version="1.1" xmlns="http://www.w3.org/2000/svg" p-id="4090" width="200" height="200"><path d="M560.92672 665.33376A105.96352 105.96352 0 0 1 485.49888 696.32l-121.56928-0.49152a35.96288 35.96288 0 0 1-35.75808-35.75808L327.68 538.50112a105.96352 105.96352 0 0 1 30.98624-75.42784L672.0512 146.26816a79.11424 79.11424 0 0 1 111.90272-0.43008l94.0032 94.0032a79.11424 79.11424 0 0 1 0 111.88224l-317.0304 313.61024zM752.78336 368.64L819.2 304.27136 719.72864 204.8 655.36 271.21664 752.78336 368.64z m-281.27232-157.61408l-173.6704 26.7264A61.44 61.44 0 0 0 245.76 298.47552V716.8a61.44 61.44 0 0 0 61.44 61.44h418.32448a61.44 61.44 0 0 0 60.7232-52.10112l26.7264-173.6704A47.73888 47.73888 0 0 1 860.16 512a40.96 40.96 0 0 1 40.96 40.96v225.28a122.88 122.88 0 0 1-122.88 122.88H245.76a122.88 122.88 0 0 1-122.88-122.88V245.76a122.88 122.88 0 0 1 122.88-122.88h225.28a40.96 40.96 0 0 1 40.96 40.96c0 23.552-17.2032 43.6224-40.48896 47.18592z" p-id="4091" fill="#ffffff"></path></svg>