<?xml version="1.0" standalone="no"?><!DOCTYPE svg PUBLIC "-//W3C//DTD SVG 1.1//EN" "http://www.w3.org/Graphics/SVG/1.1/DTD/svg11.dtd"><svg t="1741421713949" class="icon" viewBox="0 0 1024 1024" version="1.1" xmlns="http://www.w3.org/2000/svg" p-id="5700" xmlns:xlink="http://www.w3.org/1999/xlink" width="200" height="200"><path d="M682.56 469.44a128 128 0 1 0-128-128 128 128 0 0 0 128 128z m-341.44 0a128 128 0 1 0-128-128 128 128 0 0 0 128.32 128z m0 85.44c-99.52 0-298.56 49.92-298.56 149.44v106.56H640V704c0-99.52-199.36-149.44-298.56-149.44z m341.44 0c-12.48 0-26.56 0-41.28 2.24A180.16 180.16 0 0 1 725.44 704v106.56h256V704c0-99.52-199.36-149.44-298.88-149.44z" p-id="5701" fill="#ffffff"></path></svg>