<svg t="1737158023028" class="icon" viewBox="0 0 1024 1024" version="1.1" xmlns="http://www.w3.org/2000/svg" p-id="1468" width="200" height="200"><path d="M928 192h-256a160 160 0 1 0-320 0H96a32 32 0 0 0-32 32v96a32 32 0 0 0 32 32h32l82.24 571.52A79.68 79.68 0 0 0 288 992h442.88a79.68 79.68 0 0 0 78.72-68.48L891.52 352H928a32 32 0 0 0 32-32V224a32 32 0 0 0-32-32zM401.92 834.24h-3.84a46.4 46.4 0 0 1-49.28-42.88l-20.48-291.2a46.4 46.4 0 0 1 42.88-49.28h3.84a46.4 46.4 0 0 1 49.28 42.88l20.48 291.2a46.4 46.4 0 0 1-42.88 49.28z m272.96-42.56a46.4 46.4 0 0 1-49.28 42.88h-3.84a46.4 46.4 0 0 1-42.88-49.28l20.48-291.2a46.4 46.4 0 0 1 49.28-42.88h3.84a46.4 46.4 0 0 1 42.88 49.28zM512 128a64 64 0 0 1 64 64h-128a64 64 0 0 1 64-64z" fill="#ffffff" p-id="1469" data-spm-anchor-id="a313x.search_index.0.i0.ec423a81x4ryvE" class=""></path></svg>