<svg t="1743925187535" class="icon" viewBox="0 0 1024 1024" version="1.1" xmlns="http://www.w3.org/2000/svg" p-id="10473" width="200" height="200"><path d="M512 820.010667q162.005333 0 256-137.984-2.005333-56.021333-89.984-93.994667t-166.016-38.016-166.016 36.992-89.984 95.018667q93.994667 137.984 256 137.984zM512 214.016q-52.010667 0-89.984 38.016t-38.016 89.984 38.016 89.984 89.984 38.016 89.984-38.016 38.016-89.984-38.016-89.984-89.984-38.016zM512 86.016q176 0 301.013333 125.013333t125.013333 301.013333-125.013333 301.013333-301.013333 125.013333-301.013333-125.013333-125.013333-301.013333 125.013333-301.013333 301.013333-125.013333z" fill="#808080" p-id="10474"></path></svg>